<svg width="95" height="20" viewBox="0 0 95 20" fill="none" xmlns="http://www.w3.org/2000/svg">
<path d="M7.78357 12.1782C7.78357 13.5445 8.89116 14.652 10.2574 14.652C11.6236 14.652 12.7312 13.5445 12.7312 12.1782C12.7312 10.812 11.6236 9.70441 10.2574 9.70441C8.89116 9.70441 7.78357 10.812 7.78357 12.1782Z" fill="url(#paint0_linear_1999_15955)"/>
<path d="M13.8933 6.7702H16.0626V4.60088H13.8933V6.7702Z" fill="url(#paint1_linear_1999_15955)"/>
<path d="M11.9837 3.56207H14.153V1.39277H11.9837V3.56207Z" fill="url(#paint2_linear_1999_15955)"/>
<path d="M14.8252 1.39276H16.2179V6.67572e-06H14.8252V1.39276Z" fill="url(#paint3_linear_1999_15955)"/>
<path d="M13.6794 9.9784V12.5302C13.6794 13.2904 13.3827 14.0205 12.8524 14.5652L12.7037 14.718C12.1545 15.2821 11.4007 15.6003 10.6134 15.6003H8.05756V20H12.4573V17.2954C12.4573 16.5353 12.754 15.8051 13.2843 15.2604C13.8334 14.6963 14.5873 14.3781 15.3746 14.3781H18.0792V9.9784H13.6794Z" fill="url(#paint4_linear_1999_15955)"/>
<path d="M8.05756 4.3565V7.06108C8.05756 7.82124 7.76084 8.55139 7.23056 9.09607H7.23054C6.68137 9.66015 5.9275 9.97834 5.14024 9.97834H2.43567V14.3781H6.83541V11.8262C6.83541 11.0661 7.13213 10.3359 7.66239 9.79128L7.81112 9.63849C8.36033 9.07439 9.11416 8.75619 9.90144 8.75619H12.4573V4.35646H8.05756V4.3565Z" fill="url(#paint5_linear_1999_15955)"/>
<path d="M33.2314 15.8762V11.4835C33.2314 10.2066 32.5334 9.23612 31.2054 9.23612C29.9285 9.23612 29.0601 10.3088 29.0601 11.5857V15.8762H27V7.46554H28.8558L28.992 8.60623C29.8433 7.77199 30.6946 7.34634 31.7502 7.34634C33.7251 7.34634 35.3086 8.82765 35.3086 11.4665V15.8762H33.2314Z" fill="#37352F"/>
<path d="M37.095 15.8762H39.1722V7.44852H37.095V15.8762ZM39.3595 5.11599C39.3595 6.73347 36.9078 6.73347 36.9078 5.11599C36.9078 3.49864 39.3595 3.49864 39.3595 5.11599Z" fill="#37352F"/>
<path d="M46.6293 15.8762V11.3814C46.6293 10.2747 46.0504 9.27021 44.9097 9.27021C43.7861 9.27021 43.1221 10.2747 43.1221 11.3814V15.8762H41.0449V7.46551H42.9688L43.1221 8.48706C43.5647 7.6358 44.5351 7.32934 45.3353 7.32934C46.3398 7.32934 47.3443 7.73798 47.821 8.89569C48.5702 7.70386 49.5407 7.36333 50.6303 7.36333C53.0138 7.36333 54.1886 8.82763 54.1886 11.3473V15.8762H52.1115V11.3473C52.1115 10.2407 51.6517 9.3042 50.5281 9.3042C49.4044 9.3042 48.7064 10.2747 48.7064 11.3814V15.8762H46.6293Z" fill="#37352F"/>
<path d="M57.9837 11.6712C57.9837 13.1354 59.0393 14.1398 60.3672 14.1398C61.6782 14.1398 62.802 13.1865 62.802 11.6712C62.802 10.2069 61.6782 9.21947 60.3672 9.21947C59.0393 9.21947 57.9837 10.1559 57.9837 11.6712ZM65.0152 3.97553V15.8764H63.0743L62.9381 14.7187C62.2911 15.7232 61.2526 16.0638 60.231 16.0638C57.7623 16.0638 55.9066 14.4293 55.9066 11.6712C55.9066 8.77685 57.7283 7.27852 60.18 7.27852C61.0653 7.27852 62.4444 7.7553 62.9381 8.62353V3.97553H65.0152Z" fill="#37352F"/>
<path d="M68.5057 11.6882C68.5057 12.9651 69.2719 14.157 70.7872 14.157C72.3025 14.157 73.0685 12.9651 73.0685 11.6882C73.0685 10.4283 72.1833 9.2025 70.7872 9.2025C69.2889 9.2025 68.5057 10.4283 68.5057 11.6882ZM75.1627 11.6882C75.1627 14.1058 73.5113 16.0638 70.7872 16.0638C68.0631 16.0638 66.4286 14.1058 66.4286 11.6882C66.4286 9.28754 68.0971 7.31268 70.7701 7.31268C73.4432 7.31268 75.1627 9.28754 75.1627 11.6882Z" fill="#37352F"/>
<path d="M82.7703 15.8762V11.4835C82.7703 10.2066 82.0723 9.23612 80.7443 9.23612C79.4674 9.23612 78.599 10.3088 78.599 11.5857V15.8762H76.5389V7.46554H78.3948L78.5309 8.60623C79.3822 7.77199 80.2335 7.34634 81.2891 7.34634C83.264 7.34634 84.8475 8.82765 84.8475 11.4665V15.8762H82.7703Z" fill="#37352F"/>
<path d="M92.9697 10.6997C92.8336 9.61014 91.9823 9.06546 90.7904 9.06546C89.6667 9.06546 88.7474 9.61014 88.4409 10.6997H92.9697ZM88.4069 12.4194C88.5431 13.4579 89.4454 14.207 90.9096 14.207C91.6758 14.207 92.6803 13.9177 93.157 13.424L94.485 14.7349C93.5996 15.6542 92.1524 16.097 90.8755 16.097C87.9811 16.097 86.2616 14.3092 86.2616 11.6192C86.2616 9.06546 87.9983 7.2266 90.7224 7.2266C93.5315 7.2266 95.2852 8.96324 94.9617 12.4194H88.4069Z" fill="#37352F"/>
<defs>
<linearGradient id="paint0_linear_1999_15955" x1="10.2574" y1="2.76574" x2="10.2574" y2="18.9311" gradientUnits="userSpaceOnUse">
<stop stop-color="#29ABE2"/>
<stop offset="1" stop-color="#22B573"/>
</linearGradient>
<linearGradient id="paint1_linear_1999_15955" x1="14.978" y1="2.76574" x2="14.978" y2="18.931" gradientUnits="userSpaceOnUse">
<stop stop-color="#29ABE2"/>
<stop offset="1" stop-color="#22B573"/>
</linearGradient>
<linearGradient id="paint2_linear_1999_15955" x1="13.0684" y1="2.76574" x2="13.0684" y2="18.9311" gradientUnits="userSpaceOnUse">
<stop stop-color="#29ABE2"/>
<stop offset="1" stop-color="#22B573"/>
</linearGradient>
<linearGradient id="paint3_linear_1999_15955" x1="15.5216" y1="2.76573" x2="15.5216" y2="18.9311" gradientUnits="userSpaceOnUse">
<stop stop-color="#29ABE2"/>
<stop offset="1" stop-color="#22B573"/>
</linearGradient>
<linearGradient id="paint4_linear_1999_15955" x1="13.0684" y1="2.76578" x2="13.0684" y2="18.9311" gradientUnits="userSpaceOnUse">
<stop stop-color="#29ABE2"/>
<stop offset="1" stop-color="#22B573"/>
</linearGradient>
<linearGradient id="paint5_linear_1999_15955" x1="7.44649" y1="2.76576" x2="7.44649" y2="18.9311" gradientUnits="userSpaceOnUse">
<stop stop-color="#29ABE2"/>
<stop offset="1" stop-color="#22B573"/>
</linearGradient>
</defs>
</svg>
